<svg width="291" height="99" viewBox="0 0 291 99" fill="none" xmlns="http://www.w3.org/2000/svg">
<path d="M2 2C2 10.7615 5.61119 14.0134 11.9919 20.2929C26.9135 34.9776 47.855 45.6316 68.3308 49.6536C86.1741 53.1586 109.1 58.9975 125.899 48.7313C136.44 42.2902 143.318 30.7573 144.423 18.6019C145.542 6.29377 126.79 5.26642 118.213 4.07524C101.199 1.71213 92.4922 12.9131 89.16 28.5938C85.1047 47.678 88.2432 65.5543 101.765 80.0905C110.364 89.3338 123.168 95.4747 135.738 96.6924C175.773 100.571 223.066 84.6008 253.796 58.7232" stroke="#00C0B7" stroke-width="3" stroke-linecap="round"/>
<path d="M241.344 32.4371C251.003 32.4371 260.662 32.4371 270.321 32.4371C274.105 32.4371 284.079 30.5708 287.614 32.5908C292.071 35.1374 286.258 57.6523 285.616 61.183C283.968 70.2494 280.082 79.9361 280.082 89.1603" stroke="#00C0B7" stroke-width="3" stroke-linecap="round"/>
</svg>
