<svg width="119" height="99" viewBox="0 0 119 99" fill="none" xmlns="http://www.w3.org/2000/svg">
<path d="M3.47313 5.52566C3.47313 23.7964 7.89253 41.7195 7.89253 60.0043C7.89253 68.3324 7.40149 76.6757 7.40149 84.9657C7.40149 87.4952 6.91044 89.9352 6.91044 92.4405C6.91044 93.6801 7.83682 93.0194 8.65638 92.6588C11.2692 91.5091 13.8252 90.7323 16.6222 90.0944C22.2136 88.8192 27.8009 87.6608 33.4268 86.548C38.3359 85.577 42.8945 83.5567 47.9127 83.1107C52.4609 82.7064 56.8191 81.6375 61.4164 81.6375C65.2879 81.6375 69.9422 80.9377 73.7198 81.9376C77.5855 82.9609 81.2692 84.6774 85.0138 86.0569C90.2958 88.003 95.8877 89.2782 101.082 91.4584C105.063 93.1297 109.148 94.5506 113.167 96.1234C113.83 96.3827 116.033 98.0041 116.795 97.2418C117.18 96.8571 116.904 95.2241 116.904 94.7866C116.904 91.9679 116.924 89.1484 116.904 86.3297C116.822 74.4486 114.896 62.725 113.222 51.0018C111.733 40.5807 111.224 30.0033 110.548 19.5204C110.27 15.2151 110.521 10.8269 110.521 6.50775C110.521 4.4619 109.327 5.03461 107.465 5.03461C99.7651 5.03461 92.0921 5.52566 84.3864 5.52566C68.4809 5.52566 52.5999 4.05252 36.6732 4.05252C29.8889 4.05252 23.4023 2.08834 16.7313 2.08834C13.1479 2.08834 9.50632 1.88957 5.92836 2.08834C3.99069 2.19599 2.96787 4.07385 2 5.52566" stroke="#00ADA5" stroke-width="3" stroke-linecap="round"/>
<path d="M51.1044 21.7296C43.6746 21.7296 36.5913 22.1521 31.2444 27.8677C27.9867 31.35 27.9684 35.2901 28.0253 39.7892C28.1637 50.7226 42.651 50.4197 50.5043 49.6101C60.7593 48.5528 67.5964 36.0637 62.2893 27.022C58.7413 20.9773 54.6148 20.7476 48.1582 20.7476" stroke="#00ADA5" stroke-width="3" stroke-linecap="round"/>
<path d="M69.2731 14.8555C62.7317 21.9419 56.0482 29.0557 49.8768 36.4614C42.2787 45.5792 36.3542 55.5856 29.744 65.3785C28.8006 66.7762 27.7792 68.1146 26.8523 69.5251C25.8124 71.1075 25.6841 71.0786 27.3706 70.3435C34.8986 67.0621 42.7445 64.8571 50.7225 62.9778C61.1793 60.5147 71.8511 58.5118 82.4222 56.5942C89.6536 55.2825 96.789 53.2333 104.028 52.0657C104.197 52.0385 107.072 51.6566 107.002 51.411C106.768 50.5932 104.643 49.6435 104.028 49.2286C101.733 47.6791 99.5219 46.021 97.3172 44.3454C90.8853 39.4572 85.6869 32.7333 79.8305 27.1316C77.0629 24.4843 75.6912 20.7783 72.4922 18.4019C71.3426 17.5479 69.0888 15.2851 67.8 14.8555" stroke="#00ADA5" stroke-width="3" stroke-linecap="round"/>
<path d="M71.2373 45.7914C71.2373 54.8873 72.557 63.9206 73.2287 72.9898C73.6013 78.0193 75.2805 75.2492 78.3847 73.2626C84.2782 69.4907 91.8537 68.7416 98.7358 68.3794C99.4979 68.3393 96.3049 57.907 96.2806 56.5943C96.23 53.863 95.8896 48.7782 94.0709 46.5552C92.1865 44.2521 93.8867 41.1806 90.0607 41.3992C85.6973 41.6486 81.49 42.8451 77.1298 42.8451C75.3776 42.8451 71.4322 42.2603 70.7462 44.3182" stroke="#00ADA5" stroke-width="3" stroke-linecap="round"/>
</svg>
