<svg width="518" height="320" viewBox="0 0 518 320" fill="none" xmlns="http://www.w3.org/2000/svg">
<rect x="348" y="124" width="16" height="65" transform="rotate(-90 348 124)" fill="#00C0B7"/>
<rect x="348" y="97" width="16" height="45" transform="rotate(-90 348 97)" fill="#00C0B7"/>
<rect x="348" y="70" width="16" height="25" transform="rotate(-90 348 70)" fill="#00C0B7"/>
<path d="M9.18182 124V30.9091H44.8182C51.5455 30.9091 57.1364 31.9697 61.5909 34.0909C66.0758 36.1818 69.4242 39.0455 71.6364 42.6818C73.8788 46.3182 75 50.4394 75 55.0455C75 58.8333 74.2727 62.0758 72.8182 64.7727C71.3636 67.4394 69.4091 69.6061 66.9545 71.2727C64.5 72.9394 61.7576 74.1364 58.7273 74.8636V75.7727C62.0303 75.9545 65.197 76.9697 68.2273 78.8182C71.2879 80.6364 73.7879 83.2121 75.7273 86.5455C77.6667 89.8788 78.6364 93.9091 78.6364 98.6364C78.6364 103.455 77.4697 107.788 75.1364 111.636C72.803 115.455 69.2879 118.47 64.5909 120.682C59.8939 122.894 53.9848 124 46.8636 124H9.18182ZM26.0455 109.909H44.1818C50.303 109.909 54.7121 108.742 57.4091 106.409C60.1364 104.045 61.5 101.015 61.5 97.3182C61.5 94.5606 60.8182 92.0758 59.4545 89.8636C58.0909 87.6212 56.1515 85.8636 53.6364 84.5909C51.1212 83.2879 48.1212 82.6364 44.6364 82.6364H26.0455V109.909ZM26.0455 70.5H42.7273C45.6364 70.5 48.2576 69.9697 50.5909 68.9091C52.9242 67.8182 54.7576 66.2879 56.0909 64.3182C57.4545 62.3182 58.1364 59.9545 58.1364 57.2273C58.1364 53.6212 56.8636 50.6515 54.3182 48.3182C51.803 45.9848 48.0606 44.8182 43.0909 44.8182H26.0455V70.5ZM142.2 94.6364V54.1818H158.654V124H142.7V111.591H141.972C140.397 115.5 137.806 118.697 134.2 121.182C130.624 123.667 126.215 124.909 120.972 124.909C116.397 124.909 112.351 123.894 108.836 121.864C105.351 119.803 102.624 116.818 100.654 112.909C98.6844 108.97 97.6995 104.212 97.6995 98.6364V54.1818H114.154V96.0909C114.154 100.515 115.366 104.03 117.79 106.636C120.215 109.242 123.397 110.545 127.336 110.545C129.76 110.545 132.109 109.955 134.381 108.773C136.654 107.591 138.518 105.833 139.972 103.5C141.457 101.136 142.2 98.1818 142.2 94.6364ZM206.604 125.227C201.119 125.227 196.21 123.818 191.876 121C187.543 118.182 184.119 114.091 181.604 108.727C179.088 103.364 177.831 96.8485 177.831 89.1818C177.831 81.4242 179.104 74.8788 181.649 69.5455C184.225 64.1818 187.695 60.1364 192.058 57.4091C196.422 54.6515 201.285 53.2727 206.649 53.2727C210.74 53.2727 214.104 53.9697 216.74 55.3636C219.376 56.7273 221.467 58.3788 223.013 60.3182C224.558 62.2273 225.755 64.0303 226.604 65.7273H227.285V30.9091H243.785V124H227.604V113H226.604C225.755 114.697 224.528 116.5 222.922 118.409C221.316 120.288 219.195 121.894 216.558 123.227C213.922 124.561 210.604 125.227 206.604 125.227ZM211.195 111.727C214.679 111.727 217.649 110.788 220.104 108.909C222.558 107 224.422 104.348 225.695 100.955C226.967 97.5606 227.604 93.6061 227.604 89.0909C227.604 84.5758 226.967 80.6515 225.695 77.3182C224.452 73.9848 222.604 71.3939 220.149 69.5455C217.725 67.697 214.74 66.7727 211.195 66.7727C207.528 66.7727 204.467 67.7273 202.013 69.6364C199.558 71.5455 197.71 74.1818 196.467 77.5455C195.225 80.9091 194.604 84.7576 194.604 89.0909C194.604 93.4545 195.225 97.3485 196.467 100.773C197.74 104.167 199.604 106.848 202.058 108.818C204.543 110.758 207.588 111.727 211.195 111.727ZM296.803 151.636C290.894 151.636 285.818 150.833 281.576 149.227C277.333 147.652 273.924 145.53 271.349 142.864C268.773 140.197 266.985 137.242 265.985 134L280.803 130.409C281.47 131.773 282.44 133.121 283.712 134.455C284.985 135.818 286.697 136.939 288.849 137.818C291.03 138.727 293.773 139.182 297.076 139.182C301.743 139.182 305.606 138.045 308.667 135.773C311.727 133.53 313.258 129.833 313.258 124.682V111.455H312.44C311.591 113.152 310.349 114.894 308.712 116.682C307.106 118.47 304.97 119.97 302.303 121.182C299.667 122.394 296.349 123 292.349 123C286.985 123 282.121 121.742 277.758 119.227C273.424 116.682 269.97 112.894 267.394 107.864C264.849 102.803 263.576 96.4697 263.576 88.8636C263.576 81.197 264.849 74.7273 267.394 69.4545C269.97 64.1515 273.44 60.1364 277.803 57.4091C282.167 54.6515 287.03 53.2727 292.394 53.2727C296.485 53.2727 299.849 53.9697 302.485 55.3636C305.152 56.7273 307.273 58.3788 308.849 60.3182C310.424 62.2273 311.621 64.0303 312.44 65.7273H313.349V54.1818H329.576V125.136C329.576 131.106 328.152 136.045 325.303 139.955C322.455 143.864 318.561 146.788 313.621 148.727C308.682 150.667 303.076 151.636 296.803 151.636ZM296.94 110.091C300.424 110.091 303.394 109.242 305.849 107.545C308.303 105.848 310.167 103.409 311.44 100.227C312.712 97.0455 313.349 93.2273 313.349 88.7727C313.349 84.3788 312.712 80.5303 311.44 77.2273C310.197 73.9242 308.349 71.3636 305.894 69.5455C303.47 67.697 300.485 66.7727 296.94 66.7727C293.273 66.7727 290.212 67.7273 287.758 69.6364C285.303 71.5455 283.455 74.1667 282.212 77.5C280.97 80.803 280.349 84.5606 280.349 88.7727C280.349 93.0455 280.97 96.7879 282.212 100C283.485 103.182 285.349 105.667 287.803 107.455C290.288 109.212 293.333 110.091 296.94 110.091ZM460.163 54.1818V66.9091H420.027V54.1818H460.163ZM429.936 37.4545H446.39V103C446.39 105.212 446.724 106.909 447.39 108.091C448.087 109.242 448.997 110.03 450.118 110.455C451.239 110.879 452.481 111.091 453.845 111.091C454.875 111.091 455.815 111.015 456.663 110.864C457.542 110.712 458.209 110.576 458.663 110.455L461.436 123.318C460.557 123.621 459.3 123.955 457.663 124.318C456.057 124.682 454.087 124.894 451.754 124.955C447.633 125.076 443.921 124.455 440.618 123.091C437.315 121.697 434.693 119.545 432.754 116.636C430.845 113.727 429.906 110.091 429.936 105.727V37.4545ZM9.18182 279V185.909H44.8182C51.5455 185.909 57.1364 186.97 61.5909 189.091C66.0758 191.182 69.4242 194.045 71.6364 197.682C73.8788 201.318 75 205.439 75 210.045C75 213.833 74.2727 217.076 72.8182 219.773C71.3636 222.439 69.4091 224.606 66.9545 226.273C64.5 227.939 61.7576 229.136 58.7273 229.864V230.773C62.0303 230.955 65.197 231.97 68.2273 233.818C71.2879 235.636 73.7879 238.212 75.7273 241.545C77.6667 244.879 78.6364 248.909 78.6364 253.636C78.6364 258.455 77.4697 262.788 75.1364 266.636C72.803 270.455 69.2879 273.47 64.5909 275.682C59.8939 277.894 53.9848 279 46.8636 279H9.18182ZM26.0455 264.909H44.1818C50.303 264.909 54.7121 263.742 57.4091 261.409C60.1364 259.045 61.5 256.015 61.5 252.318C61.5 249.561 60.8182 247.076 59.4545 244.864C58.0909 242.621 56.1515 240.864 53.6364 239.591C51.1212 238.288 48.1212 237.636 44.6364 237.636H26.0455V264.909ZM26.0455 225.5H42.7273C45.6364 225.5 48.2576 224.97 50.5909 223.909C52.9242 222.818 54.7576 221.288 56.0909 219.318C57.4545 217.318 58.1364 214.955 58.1364 212.227C58.1364 208.621 56.8636 205.652 54.3182 203.318C51.803 200.985 48.0606 199.818 43.0909 199.818H26.0455V225.5ZM142.2 249.636V209.182H158.654V279H142.7V266.591H141.972C140.397 270.5 137.806 273.697 134.2 276.182C130.624 278.667 126.215 279.909 120.972 279.909C116.397 279.909 112.351 278.894 108.836 276.864C105.351 274.803 102.624 271.818 100.654 267.909C98.6844 263.97 97.6995 259.212 97.6995 253.636V209.182H114.154V251.091C114.154 255.515 115.366 259.03 117.79 261.636C120.215 264.242 123.397 265.545 127.336 265.545C129.76 265.545 132.109 264.955 134.381 263.773C136.654 262.591 138.518 260.833 139.972 258.5C141.457 256.136 142.2 253.182 142.2 249.636ZM206.604 280.227C201.119 280.227 196.21 278.818 191.876 276C187.543 273.182 184.119 269.091 181.604 263.727C179.088 258.364 177.831 251.848 177.831 244.182C177.831 236.424 179.104 229.879 181.649 224.545C184.225 219.182 187.695 215.136 192.058 212.409C196.422 209.652 201.285 208.273 206.649 208.273C210.74 208.273 214.104 208.97 216.74 210.364C219.376 211.727 221.467 213.379 223.013 215.318C224.558 217.227 225.755 219.03 226.604 220.727H227.285V185.909H243.785V279H227.604V268H226.604C225.755 269.697 224.528 271.5 222.922 273.409C221.316 275.288 219.195 276.894 216.558 278.227C213.922 279.561 210.604 280.227 206.604 280.227ZM211.195 266.727C214.679 266.727 217.649 265.788 220.104 263.909C222.558 262 224.422 259.348 225.695 255.955C226.967 252.561 227.604 248.606 227.604 244.091C227.604 239.576 226.967 235.652 225.695 232.318C224.452 228.985 222.604 226.394 220.149 224.545C217.725 222.697 214.74 221.773 211.195 221.773C207.528 221.773 204.467 222.727 202.013 224.636C199.558 226.545 197.71 229.182 196.467 232.545C195.225 235.909 194.604 239.758 194.604 244.091C194.604 248.455 195.225 252.348 196.467 255.773C197.74 259.167 199.604 261.848 202.058 263.818C204.543 265.758 207.588 266.727 211.195 266.727ZM292.349 280.227C286.864 280.227 281.955 278.818 277.621 276C273.288 273.182 269.864 269.091 267.349 263.727C264.833 258.364 263.576 251.848 263.576 244.182C263.576 236.424 264.849 229.879 267.394 224.545C269.97 219.182 273.44 215.136 277.803 212.409C282.167 209.652 287.03 208.273 292.394 208.273C296.485 208.273 299.849 208.97 302.485 210.364C305.121 211.727 307.212 213.379 308.758 215.318C310.303 217.227 311.5 219.03 312.349 220.727H313.03V185.909H329.53V279H313.349V268H312.349C311.5 269.697 310.273 271.5 308.667 273.409C307.061 275.288 304.94 276.894 302.303 278.227C299.667 279.561 296.349 280.227 292.349 280.227ZM296.94 266.727C300.424 266.727 303.394 265.788 305.849 263.909C308.303 262 310.167 259.348 311.44 255.955C312.712 252.561 313.349 248.606 313.349 244.091C313.349 239.576 312.712 235.652 311.44 232.318C310.197 228.985 308.349 226.394 305.894 224.545C303.47 222.697 300.485 221.773 296.94 221.773C293.273 221.773 290.212 222.727 287.758 224.636C285.303 226.545 283.455 229.182 282.212 232.545C280.97 235.909 280.349 239.758 280.349 244.091C280.349 248.455 280.97 252.348 282.212 255.773C283.485 259.167 285.349 261.848 287.803 263.818C290.288 265.758 293.333 266.727 296.94 266.727ZM362.412 305.182C360.169 305.182 358.094 305 356.185 304.636C354.306 304.303 352.806 303.909 351.685 303.455L355.503 290.636C357.897 291.333 360.033 291.667 361.912 291.636C363.791 291.606 365.442 291.015 366.866 289.864C368.321 288.742 369.548 286.864 370.548 284.227L371.957 280.455L346.639 209.182H364.094L380.185 261.909H380.912L397.048 209.182H414.548L386.594 287.455C385.291 291.152 383.563 294.318 381.412 296.955C379.26 299.621 376.624 301.652 373.503 303.045C370.412 304.47 366.715 305.182 362.412 305.182ZM451.191 185.909L449.691 251.636H435.055L433.6 185.909H451.191ZM442.373 280C439.615 280 437.252 279.03 435.282 277.091C433.342 275.152 432.373 272.788 432.373 270C432.373 267.273 433.342 264.939 435.282 263C437.252 261.061 439.615 260.091 442.373 260.091C445.07 260.091 447.403 261.061 449.373 263C451.373 264.939 452.373 267.273 452.373 270C452.373 271.848 451.903 273.53 450.964 275.045C450.055 276.561 448.842 277.773 447.327 278.682C445.842 279.561 444.191 280 442.373 280Z" fill="black"/>
</svg>
