<svg width="122" height="117" viewBox="0 0 122 117" fill="none" xmlns="http://www.w3.org/2000/svg">
<path d="M30.8409 11.9091L29.3409 77.6364H14.7045L13.25 11.9091H30.8409ZM22.0227 106C19.2652 106 16.9015 105.03 14.9318 103.091C12.9924 101.152 12.0227 98.7879 12.0227 96C12.0227 93.2727 12.9924 90.9394 14.9318 89C16.9015 87.0606 19.2652 86.0909 22.0227 86.0909C24.7197 86.0909 27.053 87.0606 29.0227 89C31.0227 90.9394 32.0227 93.2727 32.0227 96C32.0227 97.8485 31.553 99.5303 30.6136 101.045C29.7045 102.561 28.4924 103.773 26.9773 104.682C25.4924 105.561 23.8409 106 22.0227 106Z" fill="#00C0B7"/>
<rect x="44" y="102" width="20.3429" height="78" transform="rotate(-90 44 102)" fill="#00C0B7"/>
<rect x="44" y="67.6714" width="20.3429" height="54" transform="rotate(-90 44 67.6714)" fill="#00C0B7"/>
<rect x="44" y="33.3429" width="20.3429" height="30" transform="rotate(-90 44 33.3429)" fill="#00C0B7"/>
</svg>
